<svg width="18" height="20" viewBox="0 0 18 20" fill="none" xmlns="http://www.w3.org/2000/svg">
<path d="M9.00494 19.75C8.01694 19.75 7.12793 19.237 6.62693 18.377C6.41893 18.019 6.53993 17.56 6.89793 17.352C7.25493 17.143 7.71494 17.264 7.92294 17.623C8.38094 18.408 9.62794 18.41 10.0869 17.623C10.2959 17.265 10.7559 17.145 11.1129 17.353C11.4709 17.561 11.5919 18.021 11.3829 18.379C10.8809 19.237 9.99294 19.75 9.00494 19.75ZM17.6759 16.325C17.8009 16.065 17.7659 15.757 17.5859 15.532C17.5679 15.509 15.7509 13.206 15.7509 10.501V8C15.7509 7.586 15.4149 7.25 15.0009 7.25C14.5869 7.25 14.2509 7.586 14.2509 8V10.5C14.2509 12.436 14.9989 14.158 15.6159 15.25H2.38693C3.00393 14.158 3.75193 12.436 3.75193 10.5V7C3.75193 4.105 6.10694 1.75 9.00194 1.75C9.41593 1.75 9.75194 1.414 9.75194 1C9.75194 0.586 9.41593 0.25 9.00194 0.25C5.27993 0.25 2.25193 3.278 2.25193 7V10.5C2.25193 13.189 0.433936 15.509 0.415936 15.532C0.236936 15.757 0.201939 16.066 0.327939 16.325C0.452939 16.584 0.714942 16.75 1.00294 16.75H17.0029C17.2879 16.75 17.5509 16.585 17.6759 16.325ZM16.7499 3C16.7499 1.484 15.5169 0.25 13.9999 0.25C12.4829 0.25 11.2499 1.484 11.2499 3C11.2499 4.516 12.4829 5.75 13.9999 5.75C15.5169 5.75 16.7499 4.516 16.7499 3ZM15.2499 3C15.2499 3.689 14.6889 4.25 13.9999 4.25C13.3109 4.25 12.7499 3.689 12.7499 3C12.7499 2.311 13.3109 1.75 13.9999 1.75C14.6889 1.75 15.2499 2.311 15.2499 3Z" fill="#486AE5"/>
</svg>
