<svg width="12" height="12" viewBox="0 0 12 12" fill="none" xmlns="http://www.w3.org/2000/svg">
<path d="M11.4415 10.5585C11.6856 10.8026 11.6856 11.1985 11.4415 11.4426C11.3198 11.5643 11.1598 11.626 10.9998 11.626C10.8398 11.626 10.6798 11.5651 10.5581 11.4426L5.99979 6.88429L1.44146 11.4426C1.31979 11.5643 1.15979 11.626 0.999791 11.626C0.839791 11.626 0.679792 11.5651 0.558125 11.4426C0.313958 11.1985 0.313958 10.8026 0.558125 10.5585L5.11646 6.00014L0.558125 1.44183C0.313958 1.19767 0.313958 0.801803 0.558125 0.557637C0.802292 0.31347 1.19813 0.31347 1.4423 0.557637L6.00063 5.116L10.559 0.557637C10.8031 0.31347 11.199 0.31347 11.4431 0.557637C11.6873 0.801803 11.6873 1.19767 11.4431 1.44183L6.88479 6.00014L11.4415 10.5585Z" fill="#C6C4C4"/>
</svg>
