<svg width="15" height="16" viewBox="0 0 15 16" fill="none" xmlns="http://www.w3.org/2000/svg">
<path d="M7.5 0.5C6.01664 0.5 4.5666 0.939867 3.33323 1.76398C2.09986 2.58809 1.13856 3.75943 0.570907 5.12987C0.00324965 6.50032 -0.145275 8.00832 0.144114 9.46318C0.433503 10.918 1.14781 12.2544 2.1967 13.3033C3.2456 14.3522 4.58197 15.0665 6.03683 15.3559C7.49168 15.6453 8.99968 15.4968 10.3701 14.9291C11.7406 14.3614 12.9119 13.4001 13.736 12.1668C14.5601 10.9334 15 9.48336 15 8C14.9979 6.01154 14.207 4.10513 12.8009 2.69907C11.3949 1.29302 9.48847 0.502151 7.5 0.5V0.5ZM13.75 8C13.7507 9.22482 13.3893 10.4225 12.7113 11.4425L11.9663 10.6969C11.9078 10.6383 11.875 10.559 11.875 10.4763V9.875C11.875 9.37772 11.6775 8.90081 11.3258 8.54918C10.9742 8.19754 10.4973 8 10 8H8.125C7.95924 8 7.80027 7.93415 7.68306 7.81694C7.56585 7.69973 7.5 7.54076 7.5 7.375V7.0625C7.5 6.97962 7.53293 6.90013 7.59153 6.84153C7.65014 6.78292 7.72962 6.75 7.8125 6.75C8.2269 6.75 8.62433 6.58538 8.91736 6.29236C9.21038 5.99933 9.375 5.6019 9.375 5.1875V4.5625C9.375 4.47962 9.40793 4.40013 9.46653 4.34153C9.52514 4.28292 9.60462 4.25 9.6875 4.25H10.5494C10.9634 4.24882 11.3602 4.08443 11.6538 3.7925L11.8894 3.55688C12.4789 4.13692 12.947 4.82853 13.2664 5.59136C13.5859 6.35419 13.7503 7.17298 13.75 8ZM1.28063 8.60188L3.25438 10.5756C3.42807 10.7504 3.63474 10.889 3.86241 10.9833C4.09008 11.0776 4.3342 11.1258 4.58063 11.125H6.25C6.41576 11.125 6.57474 11.1908 6.69195 11.3081C6.80916 11.4253 6.875 11.5842 6.875 11.75V14.2181C5.43762 14.0714 4.09525 13.432 3.07558 12.4083C2.05592 11.3847 1.42174 10.0398 1.28063 8.60188ZM8.125 14.2181V11.75C8.125 11.2527 7.92746 10.7758 7.57583 10.4242C7.2242 10.0725 6.74728 9.875 6.25 9.875H4.58063C4.49845 9.87507 4.41707 9.85892 4.34114 9.8275C4.26521 9.79608 4.19623 9.74999 4.13813 9.69188L1.35188 6.90563C1.53074 5.88888 1.95921 4.93243 2.59886 4.12211C3.23851 3.31179 4.06932 2.67294 5.01675 2.26288C5.96418 1.85282 6.99859 1.68438 8.02717 1.77268C9.05575 1.86097 10.0463 2.20323 10.91 2.76875L10.77 2.90875C10.7112 2.96677 10.632 2.99951 10.5494 3H9.6875C9.2731 3 8.87568 3.16462 8.58265 3.45765C8.28962 3.75067 8.125 4.1481 8.125 4.5625V5.1875C8.125 5.27038 8.09208 5.34987 8.03347 5.40847C7.97487 5.46708 7.89538 5.5 7.8125 5.5C7.3981 5.5 7.00067 5.66462 6.70765 5.95765C6.41462 6.25067 6.25 6.6481 6.25 7.0625V7.375C6.25 7.87228 6.44755 8.3492 6.79918 8.70083C7.15081 9.05246 7.62772 9.25 8.125 9.25H10C10.1658 9.25 10.3247 9.31585 10.4419 9.43306C10.5592 9.55027 10.625 9.70924 10.625 9.875V10.4763C10.6262 10.8902 10.7906 11.2871 11.0825 11.5806L11.9181 12.4163C10.9003 13.4376 9.55976 14.0744 8.125 14.2181Z" fill="#486AE5"/>
</svg>
