<svg width="24" height="24" viewBox="0 0 24 24" fill="none" xmlns="http://www.w3.org/2000/svg">
<path d="M7 8H6C5.46957 8 4.96086 8.21071 4.58579 8.58579C4.21071 8.96086 4 9.46957 4 10V19C4 19.5304 4.21071 20.0391 4.58579 20.4142C4.96086 20.7893 5.46957 21 6 21H15C15.5304 21 16.0391 20.7893 16.4142 20.4142C16.7893 20.0391 17 19.5304 17 19V18" stroke="#C6C4C4" stroke-width="1.5" stroke-linecap="round" stroke-linejoin="round"/>
<path d="M16 6.00011L19 9.00011M20.385 7.58511C20.7788 7.19126 21.0001 6.65709 21.0001 6.10011C21.0001 5.54312 20.7788 5.00895 20.385 4.61511C19.9912 4.22126 19.457 4 18.9 4C18.343 4 17.8088 4.22126 17.415 4.61511L9 13.0001V16.0001H12L20.385 7.58511Z" stroke="#C6C4C4" stroke-width="1.5" stroke-linecap="round" stroke-linejoin="round"/>
</svg>
