<svg width="21" height="21" viewBox="0 0 21 21" fill="none" xmlns="http://www.w3.org/2000/svg">
<path d="M8.00903 8.75C10.353 8.75 12.259 6.843 12.259 4.5C12.259 2.157 10.353 0.25 8.00903 0.25C5.66503 0.25 3.75903 2.157 3.75903 4.5C3.75903 6.843 5.66503 8.75 8.00903 8.75ZM8.00903 1.75C9.52603 1.75 10.759 2.983 10.759 4.5C10.759 6.017 9.52603 7.25 8.00903 7.25C6.49203 7.25 5.25903 6.017 5.25903 4.5C5.25903 2.983 6.49203 1.75 8.00903 1.75ZM1.75 16.02C1.75 17.583 2.423 18.25 4 18.25H8C8.414 18.25 8.75 18.586 8.75 19C8.75 19.414 8.414 19.75 8 19.75H4C1.582 19.75 0.25 18.425 0.25 16.02C0.25 13.358 1.756 10.25 6 10.25H10C10.852 10.25 11.613 10.374 12.264 10.618C12.652 10.764 12.848 11.196 12.702 11.584C12.556 11.972 12.124 12.168 11.736 12.022C11.256 11.841 10.671 11.75 10 11.75H6C2.057 11.75 1.75 15.019 1.75 16.02ZM20.2371 11.876L19.123 10.7629C18.793 10.4319 18.353 10.25 17.886 10.25C17.885 10.25 17.885 10.25 17.884 10.25C17.415 10.25 16.976 10.434 16.647 10.765L10.469 16.9709C10.328 17.1119 10.25 17.302 10.25 17.5V20C10.25 20.414 10.586 20.75 11 20.75H13.5C13.698 20.75 13.8891 20.671 14.0291 20.532L20.233 14.355C20.566 14.025 20.75 13.585 20.75 13.116C20.751 12.647 20.5681 12.208 20.2371 11.876ZM13.1899 19.25H11.75V17.8101L15.8719 13.6689L17.33 15.1281L13.1899 19.25ZM19.176 13.291L18.394 14.0699L16.931 12.606L17.71 11.823C17.772 11.76 17.847 11.75 17.886 11.75C17.925 11.75 17.999 11.76 18.063 11.823L19.177 12.937C19.241 13 19.25 13.075 19.25 13.113C19.25 13.153 19.24 13.227 19.176 13.291Z" fill="#486AE5"/>
</svg>
