<svg width="14" height="14" viewBox="0 0 14 14" fill="none" xmlns="http://www.w3.org/2000/svg">
<path d="M13.3067 2.2644L11.7357 0.693357C11.3683 0.32669 10.9093 0.124297 10.3621 0.125002C9.84312 0.125707 9.35583 0.328825 8.99058 0.696197L0.279419 9.44746C0.179996 9.54689 0.125 9.6809 0.125 9.82051V13.3462C0.125 13.6381 0.361923 13.875 0.653846 13.875H4.17949C4.3191 13.875 4.45382 13.8193 4.55254 13.7213L13.3038 5.00943C13.6712 4.64346 13.8743 4.15626 13.875 3.63799C13.8757 3.11902 13.6741 2.63107 13.3067 2.2644ZM3.96086 12.8173H1.18269V10.0391L7.52385 3.66898L10.3318 6.47606L3.96086 12.8173ZM12.5579 4.25988L11.0813 5.73005L8.26995 2.91943L9.74012 1.44221C9.90653 1.2751 10.1279 1.1834 10.3642 1.18269H10.3649C10.6004 1.18269 10.8218 1.27434 10.9889 1.44075L12.5599 3.01179C12.7264 3.17891 12.818 3.40031 12.818 3.63653C12.8173 3.87204 12.725 4.09347 12.5579 4.25988Z" fill="#FFFCFC"/>
</svg>
