<svg width="18" height="18" viewBox="0 0 18 18" fill="none" xmlns="http://www.w3.org/2000/svg">
<path d="M16.1582 7.76682C16.6166 8.52516 16.6166 9.47513 16.1582 10.2335C15.1332 11.9418 12.8415 14.8335 8.99982 14.8335C8.37648 14.8335 7.78985 14.7543 7.24485 14.6168C7.05902 14.5701 7.00058 14.3319 7.13641 14.1969L8.71641 12.6169C8.81308 12.5202 8.93315 12.5418 8.99982 12.5418C10.9532 12.5418 12.5415 10.9526 12.5415 9.00014C12.5415 8.93348 12.5315 8.80177 12.6007 8.7326L14.8856 6.44765C14.9915 6.34182 15.1697 6.35273 15.2622 6.47023C15.6289 6.93357 15.9274 7.37766 16.1582 7.76682ZM16.9415 1.94183L1.94151 16.9418C1.81984 17.0635 1.65982 17.1251 1.49982 17.1251C1.33982 17.1251 1.17979 17.0643 1.05813 16.9418C0.813958 16.6977 0.813958 16.3018 1.05813 16.0576L4.14569 12.9701C3.08736 12.0692 2.31974 11.0301 1.84141 10.2326C1.38308 9.47431 1.38308 8.52434 1.84141 7.76601C2.86641 6.05768 5.15815 3.16599 8.99982 3.16599C10.5198 3.16599 11.789 3.62175 12.844 4.27175L16.0581 1.05764C16.3023 0.81347 16.6982 0.81347 16.9423 1.05764C17.1865 1.3018 17.1857 1.69767 16.9415 1.94183ZM6.09983 11.0159L7.00722 10.1085C6.82222 9.77937 6.70815 9.40514 6.70815 9.00014C6.70815 8.70848 6.76643 8.43348 6.86643 8.17515C7.02477 8.30848 7.22473 8.39182 7.44973 8.39182C7.96639 8.39182 8.3915 7.96672 8.3915 7.45005C8.3915 7.22505 8.30816 7.02509 8.17482 6.86676C8.43316 6.76676 8.70815 6.70847 8.99982 6.70847C9.40482 6.70847 9.77988 6.82255 10.1082 7.00755L11.0156 6.10016C10.4423 5.69849 9.74898 5.45847 8.99982 5.45847C7.04982 5.45847 5.45815 7.05014 5.45815 9.00014C5.45815 9.75014 5.69817 10.4426 6.09983 11.0159Z" fill="#5C5D5F"/>
</svg>
