<svg width="26" height="25" viewBox="0 0 26 25" fill="none" xmlns="http://www.w3.org/2000/svg">
<g clip-path="url(#clip0_17_6917)">
<rect x="2.5" y="1" width="22" height="22" rx="11" fill="white"/>
<path d="M13 25C19.9036 25 25.5 19.4036 25.5 12.5C25.5 5.59644 19.9036 0 13 0C6.09644 0 0.5 5.59644 0.5 12.5C0.5 19.4036 6.09644 25 13 25Z" fill="#3577E5"/>
<path d="M14.1667 19.9166V13.1666H16.4167L16.75 10.4999H14.1667V8.83325C14.1667 8.08325 14.4167 7.58325 15.5 7.58325H16.9167V5.16659C16.6667 5.16659 15.8333 5.08325 14.9167 5.08325C12.9167 5.08325 11.5 6.33325 11.5 8.58325V10.4999H9.25V13.1666H11.5V19.9166H14.1667Z" fill="white"/>
</g>
<rect x="1" y="0.5" width="24" height="24" rx="12" stroke="#1A1B1E"/>
<defs>
<clipPath id="clip0_17_6917">
<rect x="0.5" width="25" height="25" rx="12.5" fill="white"/>
</clipPath>
</defs>
</svg>
