<svg width="24" height="24" viewBox="0 0 24 24" fill="none" xmlns="http://www.w3.org/2000/svg">
<path d="M17.3745 17.4319L17.027 17.0724L17.3745 17.4319C17.4528 17.3562 17.5289 17.2786 17.6027 17.1992L17.2364 16.8589L17.6027 17.1992C17.94 16.8363 18.1212 16.419 18.1436 15.988C18.1657 15.5614 18.0305 15.1595 17.8013 14.8229C17.3479 14.1569 16.506 13.7074 15.5714 13.7074H14.458C13.5147 13.7074 12.75 12.9427 12.75 11.9995C12.75 11.0562 13.5147 10.2915 14.458 10.2915H21.0814C22.1498 10.2915 23.0003 11.0559 23.0003 12.0142C23.0003 15.0615 22.0439 17.6591 20.3798 19.559C20.0421 19.9445 19.5202 20.1502 18.9512 20.1502H18.1529C17.3699 20.1502 16.7351 19.5154 16.7351 18.7324C16.7351 18.2736 16.9775 17.8158 17.3745 17.4319Z" fill="#4285F4" stroke="#1A1B1E"/>
<path d="M17.3518 21.8755C15.8893 22.5957 14.1753 22.9991 12.2503 22.9991C8.05344 22.9991 4.40188 20.6926 2.47197 17.2826C2.33265 17.0365 2.26367 16.7454 2.26367 16.4373V16.2564C2.26367 15.2818 3.05375 14.4917 4.02836 14.4917C4.77164 14.4917 5.46891 14.9896 5.92035 15.7294C7.23128 17.8774 9.56832 19.3482 12.2503 19.3482C13.1578 19.3482 13.996 19.2148 14.7564 18.9708C15.708 18.6655 16.6889 18.6982 17.362 19.2213C17.8575 19.6064 18.1073 20.1639 18.1049 20.6732C18.1026 21.1693 17.8652 21.6226 17.3518 21.8755Z" fill="#34A853" stroke="#1A1B1E"/>
<path d="M4.80308 12.2303C4.86664 13.2377 4.58799 14.1913 3.90471 14.7218C3.39121 15.1204 2.76607 15.2245 2.25227 15.0859C1.75018 14.9504 1.3513 14.5863 1.22981 13.9998C1.07951 13.2742 1 12.5223 1 11.7497C1 10.4354 1.23011 9.18043 1.64798 8.0121C1.87126 7.38781 2.50984 6.98193 3.24653 6.98193C4.30335 6.98193 5.16007 7.83865 5.16007 8.89547V9.08505C5.16007 9.30744 5.1211 9.53853 5.05528 9.78048C4.88498 10.4064 4.78799 11.0667 4.78799 11.7497C4.78799 11.911 4.79304 12.0713 4.80308 12.2303Z" fill="#FBBC05" stroke="#1A1B1E"/>
<path d="M15.0369 4.69498C14.174 4.33232 13.2364 4.15092 12.2503 4.15092C10.1347 4.15092 8.23207 5.06698 6.88069 6.50793C6.42425 6.99462 5.80031 7.36046 5.17245 7.50145C4.54877 7.6415 3.96023 7.55427 3.5044 7.20037C2.84246 6.68646 2.67888 5.82001 3.10764 5.21914C5.14477 2.36427 8.47684 0.5 12.2503 0.5C14.4046 0.5 16.2999 1.05885 17.908 2.02526C18.7048 2.5041 18.7973 3.66331 18.0274 4.43319C17.3318 5.12876 16.1326 5.15547 15.0369 4.69498Z" fill="#EA4335" stroke="#1A1B1E"/>
</svg>
