<svg width="19" height="20" viewBox="0 0 19 20" fill="none" xmlns="http://www.w3.org/2000/svg">
<path d="M9.7501 6V9.68896L11.5301 11.469C11.8231 11.762 11.8231 12.237 11.5301 12.53C11.3841 12.676 11.1921 12.75 11.0001 12.75C10.8081 12.75 10.6161 12.677 10.4701 12.53L8.47007 10.53C8.32907 10.389 8.2501 10.198 8.2501 10V6C8.2501 5.586 8.5861 5.25 9.0001 5.25C9.4141 5.25 9.7501 5.586 9.7501 6ZM9.02598 0.25C6.21498 0.25 3.5811 1.46395 1.7501 3.54395V1C1.7501 0.586 1.4141 0.25 1.0001 0.25C0.586103 0.25 0.250103 0.586 0.250103 1V5C0.250103 5.414 0.586103 5.75 1.0001 5.75H5.0001C5.4141 5.75 5.7501 5.414 5.7501 5C5.7501 4.586 5.4141 4.25 5.0001 4.25H3.15318C4.68518 2.671 6.7862 1.75 9.0272 1.75C13.5612 1.75 17.2511 5.451 17.2511 10C17.2511 14.549 13.5622 18.25 9.0272 18.25C5.8772 18.25 3.05918 16.4949 1.67418 13.6699C1.49118 13.2989 1.04502 13.1429 0.670025 13.3269C0.298025 13.5089 0.145031 13.9581 0.326031 14.3301C1.96603 17.6731 5.29898 19.75 9.02598 19.75C14.387 19.75 18.7501 15.376 18.7501 10C18.7501 4.624 14.388 0.25 9.02598 0.25Z" fill="486AE5"/>
</svg>
