<svg width="24" height="24" viewBox="0 0 24 24" fill="none" xmlns="http://www.w3.org/2000/svg">
<path d="M12 1.25024C6.072 1.25024 1.25 6.07224 1.25 12.0002C1.25 17.9282 6.072 22.7502 12 22.7502C17.928 22.7502 22.75 17.9282 22.75 12.0002C22.75 6.07224 17.928 1.25024 12 1.25024ZM12 21.2502C6.899 21.2502 2.75 17.1012 2.75 12.0002C2.75 6.89924 6.899 2.75024 12 2.75024C17.101 2.75024 21.25 6.89924 21.25 12.0002C21.25 17.1012 17.101 21.2502 12 21.2502ZM11.7849 7.63916C11.2919 7.22316 10.6199 7.13427 10.0359 7.40527C9.44789 7.67827 9.08301 8.25234 9.08301 8.90234V15.0994C9.08301 15.7494 9.44789 16.3232 10.0359 16.5962C10.2599 16.7002 10.497 16.7512 10.731 16.7512C11.108 16.7512 11.4799 16.6183 11.7849 16.3613L15.2471 13.4421C15.6731 13.0831 15.917 12.5582 15.917 12.0002C15.917 11.4422 15.6731 10.9173 15.2471 10.5593L11.7849 7.63916ZM14.28 12.2952L10.8181 15.2153C10.8001 15.2293 10.752 15.2743 10.668 15.2363C10.611 15.2103 10.583 15.1644 10.583 15.0994V8.90234C10.583 8.83834 10.611 8.79214 10.668 8.76514C10.691 8.75414 10.713 8.75024 10.73 8.75024C10.776 8.75024 10.8051 8.77516 10.8181 8.78516L14.28 11.7053C14.398 11.8053 14.417 11.9323 14.417 11.9993C14.417 12.0663 14.398 12.1952 14.28 12.2952Z" fill="#486AE5"/>
</svg>
