<svg width="14" height="16" viewBox="0 0 14 16" fill="none" xmlns="http://www.w3.org/2000/svg">
<path d="M7 0.6875C3.38125 0.6875 0.4375 3.63125 0.4375 7.25C0.4375 11.0885 3.96024 13.415 6.29124 14.9547L6.688 15.218C6.7825 15.281 6.89125 15.3125 7 15.3125C7.10875 15.3125 7.2175 15.281 7.312 15.218L7.70876 14.9547C10.0398 13.415 13.5625 11.0885 13.5625 7.25C13.5625 3.63125 10.6187 0.6875 7 0.6875ZM7.08925 14.0157L7 14.0751L6.91075 14.0157C4.65325 12.5247 1.5625 10.4832 1.5625 7.25C1.5625 4.2515 4.0015 1.8125 7 1.8125C9.9985 1.8125 12.4375 4.2515 12.4375 7.25C12.4375 10.4832 9.346 12.5255 7.08925 14.0157ZM7 4.8125C5.656 4.8125 4.5625 5.906 4.5625 7.25C4.5625 8.594 5.656 9.6875 7 9.6875C8.344 9.6875 9.4375 8.594 9.4375 7.25C9.4375 5.906 8.344 4.8125 7 4.8125ZM7 8.5625C6.27625 8.5625 5.6875 7.97375 5.6875 7.25C5.6875 6.52625 6.27625 5.9375 7 5.9375C7.72375 5.9375 8.3125 6.52625 8.3125 7.25C8.3125 7.97375 7.72375 8.5625 7 8.5625Z" fill="#486AE5"/>
</svg>
