<svg width="12" height="16" viewBox="0 0 12 16" fill="none" xmlns="http://www.w3.org/2000/svg">
<path d="M9.5625 5.22797V4.25C9.5625 2.28575 7.96425 0.6875 6 0.6875C4.03575 0.6875 2.4375 2.28575 2.4375 4.25V5.22797C0.984 5.42072 0.1875 6.3845 0.1875 8V12.5C0.1875 14.3135 1.1865 15.3125 3 15.3125H9C10.8135 15.3125 11.8125 14.3135 11.8125 12.5V8C11.8125 6.38525 11.016 5.42147 9.5625 5.22797ZM6 1.8125C7.344 1.8125 8.4375 2.906 8.4375 4.25V5.1875H3.5625V4.25C3.5625 2.906 4.656 1.8125 6 1.8125ZM10.6875 12.5C10.6875 13.6827 10.1827 14.1875 9 14.1875H3C1.81725 14.1875 1.3125 13.6827 1.3125 12.5V8C1.3125 6.81725 1.81725 6.3125 3 6.3125H9C10.1827 6.3125 10.6875 6.81725 10.6875 8V12.5ZM6.95251 9.5C6.95251 9.809 6.7935 10.07 6.5625 10.2403V11.75C6.5625 12.0605 6.3105 12.3125 6 12.3125C5.6895 12.3125 5.4375 12.0605 5.4375 11.75V10.2214C5.2215 10.0497 5.07367 9.79625 5.07367 9.5C5.07367 8.9825 5.49001 8.5625 6.00751 8.5625H6.01501C6.53251 8.5625 6.95251 8.9825 6.95251 9.5Z" fill="#486AE5"/>
</svg>
