<svg width="13" height="14" viewBox="0 0 13 14" fill="none" xmlns="http://www.w3.org/2000/svg">
<path d="M9.76254 13.2893H2.94802C1.30027 13.2893 0.392578 12.3816 0.392578 10.7338V2.55642C0.392578 0.90867 1.30027 0.000976562 2.94802 0.000976562H9.76254C11.4103 0.000976562 12.318 0.90867 12.318 2.55642V10.7338C12.318 12.3816 11.4103 13.2893 9.76254 13.2893ZM2.94802 1.02315C1.87337 1.02315 1.41476 1.48177 1.41476 2.55642V10.7338C1.41476 11.8085 1.87337 12.2671 2.94802 12.2671H9.76254C10.8372 12.2671 11.2958 11.8085 11.2958 10.7338V2.55642C11.2958 1.48177 10.8372 1.02315 9.76254 1.02315H2.94802ZM9.59217 6.64513C9.59217 6.36301 9.36321 6.13404 9.08109 6.13404H3.62947C3.34735 6.13404 3.11838 6.36301 3.11838 6.64513C3.11838 6.92725 3.34735 7.15622 3.62947 7.15622H9.08109C9.36321 7.15622 9.59217 6.92725 9.59217 6.64513ZM7.54782 9.37094C7.54782 9.08882 7.31885 8.85985 7.03673 8.85985H3.62947C3.34735 8.85985 3.11838 9.08882 3.11838 9.37094C3.11838 9.65306 3.34735 9.88203 3.62947 9.88203H7.03673C7.31885 9.88203 7.54782 9.65306 7.54782 9.37094ZM9.59217 3.91932C9.59217 3.6372 9.36321 3.40824 9.08109 3.40824H3.62947C3.34735 3.40824 3.11838 3.6372 3.11838 3.91932C3.11838 4.20144 3.34735 4.43041 3.62947 4.43041H9.08109C9.36321 4.43041 9.59217 4.20144 9.59217 3.91932Z" fill="#FFFCFC"/>
</svg>
