<svg width="20" height="20" viewBox="0 0 20 20" fill="none" xmlns="http://www.w3.org/2000/svg">
<path d="M14.5518 19.7519C14.0928 19.7519 13.6309 19.6899 13.1749 19.5649C7.00986 17.8729 2.12885 12.9949 0.435851 6.83393C0.0508506 5.43293 0.261798 3.97292 1.0318 2.72492C1.8048 1.47092 3.07586 0.585915 4.51886 0.297915C5.47886 0.105915 6.42785 0.533922 6.91485 1.35492L8.47784 3.99491C9.23684 5.27691 8.85971 6.92791 7.61871 7.75391L6.48785 8.50592C7.54485 10.6759 9.3227 12.4589 11.4837 13.5149L12.2459 12.3779C13.0769 11.1389 14.7278 10.7679 16.0088 11.5309L18.6519 13.1069C19.4699 13.5949 19.8928 14.5499 19.7068 15.4819C19.4188 16.9249 18.5338 18.1959 17.2808 18.9689C16.4388 19.4869 15.5018 19.7519 14.5518 19.7519ZM4.97784 1.74991C4.92884 1.74991 4.87887 1.75493 4.83087 1.76493C3.77687 1.97593 2.86387 2.6109 2.30987 3.5119C1.76087 4.4019 1.60985 5.44092 1.88385 6.43592C3.43685 12.0889 7.91584 16.5659 13.5718 18.1179C14.5678 18.3909 15.6037 18.2389 16.4927 17.6909C17.3927 17.1359 18.0289 16.2219 18.2359 15.1859C18.2979 14.8749 18.1569 14.5559 17.8829 14.3929L15.2408 12.8169C14.6458 12.4629 13.8778 12.6359 13.4918 13.2109L12.3768 14.8759C12.1768 15.1739 11.7909 15.2879 11.4649 15.1499C8.5019 13.9109 6.09089 11.4949 4.85089 8.52091C4.71289 8.18891 4.82875 7.80691 5.12775 7.60791L6.78888 6.5029C7.36488 6.1199 7.53983 5.35291 7.18683 4.75791L5.62384 2.1189C5.48684 1.8869 5.23884 1.74991 4.97784 1.74991Z" fill="#486AE5"/>
</svg>
