<svg width="18" height="17" viewBox="0 0 18 17" fill="none" xmlns="http://www.w3.org/2000/svg">
<path d="M16.9417 15.2297L13.7409 12.1681C14.8109 10.9541 15.4583 9.38937 15.4583 7.68118C15.4583 3.83517 12.1875 0.706543 8.16667 0.706543C4.14583 0.706543 0.875 3.83517 0.875 7.68118C0.875 11.5272 4.14583 14.6558 8.16667 14.6558C9.9525 14.6558 11.5884 14.0365 12.8575 13.013L16.0583 16.0747C16.18 16.191 16.34 16.25 16.5 16.25C16.66 16.25 16.82 16.1918 16.9417 16.0747C17.1859 15.8419 17.1859 15.4633 16.9417 15.2297ZM2.125 7.68118C2.125 4.49437 4.835 1.9022 8.16667 1.9022C11.4983 1.9022 14.2083 4.49437 14.2083 7.68118C14.2083 10.868 11.4983 13.4602 8.16667 13.4602C4.835 13.4602 2.125 10.868 2.125 7.68118Z" fill="#C6C4C4"/>
</svg>
