<svg width="16" height="16" viewBox="0 0 16 16" fill="none" xmlns="http://www.w3.org/2000/svg">
<path d="M14.75 2.9375H12.0808C11.405 2.9375 11.3765 2.852 11.1913 2.297L11.0398 1.84175C10.8095 1.15175 10.1668 0.6875 9.43925 0.6875H6.56075C5.83325 0.6875 5.18974 1.151 4.96024 1.84175L4.80875 2.297C4.6235 2.85275 4.59499 2.9375 3.91924 2.9375H1.25C0.9395 2.9375 0.6875 3.1895 0.6875 3.5C0.6875 3.8105 0.9395 4.0625 1.25 4.0625H2.2235L2.79875 12.6867C2.90975 14.3555 3.93275 15.3125 5.60526 15.3125H10.3955C12.0673 15.3125 13.0903 14.3555 13.202 12.6867L13.7773 4.0625H14.75C15.0605 4.0625 15.3125 3.8105 15.3125 3.5C15.3125 3.1895 15.0605 2.9375 14.75 2.9375ZM6.0275 2.19725C6.10475 1.967 6.3185 1.8125 6.56075 1.8125H9.43925C9.68151 1.8125 9.896 1.967 9.9725 2.19725L10.124 2.6525C10.157 2.75075 10.19 2.846 10.226 2.9375H5.7725C5.8085 2.84525 5.84224 2.75 5.87524 2.6525L6.0275 2.19725ZM12.0785 12.6118C12.0072 13.6865 11.4717 14.1875 10.3947 14.1875H5.6045C4.5275 14.1875 3.99275 13.6873 3.92075 12.6118L3.35075 4.0625H3.91851C4.01226 4.0625 4.09024 4.05275 4.17424 4.04675C4.19974 4.0505 4.22299 4.0625 4.24924 4.0625H11.7492C11.7762 4.0625 11.7987 4.0505 11.8242 4.04675C11.9082 4.05275 11.9863 4.0625 12.08 4.0625H12.6477L12.0785 12.6118ZM9.8975 8.3975L8.795 9.5L9.8975 10.6025C10.1172 10.8223 10.1172 11.1785 9.8975 11.3983C9.788 11.5078 9.644 11.5633 9.5 11.5633C9.356 11.5633 9.212 11.5085 9.1025 11.3983L8 10.2958L6.8975 11.3983C6.788 11.5078 6.644 11.5633 6.5 11.5633C6.356 11.5633 6.212 11.5085 6.1025 11.3983C5.88275 11.1785 5.88275 10.8223 6.1025 10.6025L7.205 9.5L6.1025 8.3975C5.88275 8.17775 5.88275 7.8215 6.1025 7.60175C6.32225 7.382 6.6785 7.382 6.89825 7.60175L8.00076 8.70425L9.10326 7.60175C9.32301 7.382 9.67926 7.382 9.89901 7.60175C10.1188 7.8215 10.1172 8.17775 9.8975 8.3975Z" fill="#E44848"/>
</svg>
