<svg width="12" height="16" viewBox="0 0 12 16" fill="none" xmlns="http://www.w3.org/2000/svg">
<path d="M6.00677 7.0625C4.24878 7.0625 2.81927 5.63225 2.81927 3.875C2.81927 2.11775 4.24878 0.6875 6.00677 0.6875C7.76477 0.6875 9.19427 2.11775 9.19427 3.875C9.19427 5.63225 7.76477 7.0625 6.00677 7.0625ZM6.00677 1.8125C4.86902 1.8125 3.94427 2.73725 3.94427 3.875C3.94427 5.01275 4.86902 5.9375 6.00677 5.9375C7.14453 5.9375 8.06927 5.01275 8.06927 3.875C8.06927 2.73725 7.14377 1.8125 6.00677 1.8125ZM8.99771 15.3125H3.00229C1.18729 15.3125 0.1875 14.3188 0.1875 12.5143C0.1875 10.5185 1.317 8.1875 4.5 8.1875H7.5C10.683 8.1875 11.8125 10.5178 11.8125 12.5143C11.8125 14.3188 10.8127 15.3125 8.99771 15.3125ZM4.5 9.3125C1.54275 9.3125 1.3125 11.7628 1.3125 12.5143C1.3125 13.6873 1.81804 14.1875 3.00229 14.1875H8.99771C10.182 14.1875 10.6875 13.6873 10.6875 12.5143C10.6875 11.7635 10.4572 9.3125 7.5 9.3125H4.5Z" fill="#486AE5"/>
</svg>
